<?xml version="1.0" encoding="UTF-8" standalone="no"?>
<!-- Created with Inkscape (http://www.inkscape.org/) -->

<svg
   xmlns:dc="http://purl.org/dc/elements/1.1/"
   xmlns:cc="http://creativecommons.org/ns#"
   xmlns:rdf="http://www.w3.org/1999/02/22-rdf-syntax-ns#"
   xmlns:svg="http://www.w3.org/2000/svg"
   xmlns="http://www.w3.org/2000/svg"
   xmlns:sodipodi="http://sodipodi.sourceforge.net/DTD/sodipodi-0.dtd"
   xmlns:inkscape="http://www.inkscape.org/namespaces/inkscape"
   width="137.69025mm"
   height="137.69077mm"
   viewBox="0 0 137.69025 137.69077"
   version="1.1"
   id="svg8"
   inkscape:version="0.92.2 2405546, 2018-03-11"
   sodipodi:docname="config.svg">
  <defs
     id="defs2" />
  <sodipodi:namedview
     id="base"
     pagecolor="#ffffff"
     bordercolor="#666666"
     borderopacity="1.0"
     inkscape:pageopacity="0.0"
     inkscape:pageshadow="2"
     inkscape:zoom="0.98994949"
     inkscape:cx="290.775"
     inkscape:cy="254.13163"
     inkscape:document-units="mm"
     inkscape:current-layer="layer1"
     showgrid="false"
     inkscape:snap-bbox="true"
     inkscape:snap-bbox-midpoints="true"
     inkscape:snap-nodes="false"
     inkscape:snap-others="true"
     inkscape:bbox-paths="true"
     inkscape:snap-object-midpoints="true"
     inkscape:snap-page="false"
     showguides="true"
     inkscape:guide-bbox="true"
     inkscape:window-width="1360"
     inkscape:window-height="705"
     inkscape:window-x="0"
     inkscape:window-y="34"
     inkscape:window-maximized="1">
    <sodipodi:guide
       position="68.845157,68.845355"
       orientation="1,0"
       id="guide905"
       inkscape:locked="false" />
  </sodipodi:namedview>
  <metadata
     id="metadata5">
    <rdf:RDF>
      <cc:Work
         rdf:about="">
        <dc:format>image/svg+xml</dc:format>
        <dc:type
           rdf:resource="http://purl.org/dc/dcmitype/StillImage" />
        <dc:title></dc:title>
      </cc:Work>
    </rdf:RDF>
  </metadata>
  <g
     inkscape:label="Capa 1"
     inkscape:groupmode="layer"
     id="layer1"
     transform="translate(0.0532026,0.14311939)">
    <path
       style="opacity:1;fill:#8694b6;fill-opacity:1;stroke:#e69797;stroke-width:188.97637939;stroke-linecap:round;stroke-miterlimit:4;stroke-dasharray:none;stroke-opacity:0"
       d="m 145.91602,94.488281 c -28.49143,0 -51.427739,22.938269 -51.427739,51.429689 v 228.57031 c 0,28.49143 22.936309,51.42969 51.427739,51.42969 h 228.57226 c 28.49141,0 51.42774,-22.93826 51.42774,-51.42969 V 145.91797 c 0,-28.49142 -22.93633,-51.429689 -51.42774,-51.429689 h -53.96289 c 0.0111,0.06268 0.0183,0.126708 0.0293,0.189453 H 199.84766 c 0.011,-0.06274 0.0182,-0.126771 0.0293,-0.189453 z M 163.1543,126.60352 H 357.25 c 20.77521,2.33181 36.82227,19.85713 36.82227,41.27539 v 184.64843 c 0,23.01657 -18.52837,41.54688 -41.54493,41.54688 H 167.87695 c -23.01657,0 -41.54687,-18.53031 -41.54687,-41.54688 V 167.87891 c 0,-21.41826 16.04877,-38.94358 36.82422,-41.27539 z"
       transform="matrix(0.26458333,0,0,0.26458333,-0.0532026,-0.14311939)"
       id="rect815"
       inkscape:connector-curvature="0" />
    <path
       style="opacity:1;fill:#8694b6;fill-opacity:1;stroke:#e69797;stroke-width:188.97637939;stroke-linecap:round;stroke-miterlimit:4;stroke-dasharray:none;stroke-opacity:0"
       d="m 260.20117,169.28906 a 90.913725,90.913725 0 0 0 -90.91211,90.91406 90.913725,90.913725 0 0 0 90.91211,90.91407 90.913725,90.913725 0 0 0 90.91406,-90.91407 90.913725,90.913725 0 0 0 -90.91406,-90.91406 z m 0,34.67383 a 56.240019,56.240019 0 0 1 56.24024,56.24023 56.240019,56.240019 0 0 1 -56.24024,56.24024 56.240019,56.240019 0 0 1 -56.23828,-56.24024 56.240019,56.240019 0 0 1 56.23828,-56.24023 z"
       transform="matrix(0.26458333,0,0,0.26458333,-0.0532026,-0.14311939)"
       id="path898"
       inkscape:connector-curvature="0" />
    <rect
       style="opacity:1;fill:#8694b6;fill-opacity:0.99264705;stroke:#e69797;stroke-width:50;stroke-linecap:round;stroke-miterlimit:4;stroke-dasharray:none;stroke-opacity:0"
       id="rect903"
       width="13.363476"
       height="13.363476"
       x="62.110214"
       y="38.468941"
       ry="6.6817379"
       rx="3.2072344"
       inkscape:transform-center-y="-23.623519" />
    <rect
       inkscape:transform-center-y="-16.704352"
       rx="3.2072344"
       ry="6.6817379"
       y="-30.31781"
       x="90.592216"
       height="13.363476"
       width="13.363476"
       id="rect907"
       style="opacity:1;fill:#8694b6;fill-opacity:0.99264705;stroke:#e69797;stroke-width:50;stroke-linecap:round;stroke-miterlimit:4;stroke-dasharray:none;stroke-opacity:0"
       transform="rotate(45)"
       inkscape:transform-center-x="-16.704348" />
    <rect
       inkscape:transform-center-x="-23.623517"
       transform="rotate(90)"
       style="opacity:1;fill:#8694b6;fill-opacity:0.99264705;stroke:#e69797;stroke-width:50;stroke-linecap:round;stroke-miterlimit:4;stroke-dasharray:none;stroke-opacity:0"
       id="rect909"
       width="13.363476"
       height="13.363476"
       x="62.092457"
       y="-99.097206"
       ry="6.6817379"
       rx="3.2072344"
       inkscape:transform-center-y="-2.601143e-06" />
    <rect
       inkscape:transform-center-y="16.704345"
       rx="3.2072344"
       ry="6.6817379"
       y="-127.57921"
       x="-6.6942949"
       height="13.363476"
       width="13.363476"
       id="rect911"
       style="opacity:1;fill:#8694b6;fill-opacity:0.99264705;stroke:#e69797;stroke-width:50;stroke-linecap:round;stroke-miterlimit:4;stroke-dasharray:none;stroke-opacity:0"
       transform="rotate(135)"
       inkscape:transform-center-x="-16.704349" />
    <rect
       inkscape:transform-center-x="-4.0259846e-06"
       transform="scale(-1)"
       style="opacity:1;fill:#8694b6;fill-opacity:0.99264705;stroke:#e69797;stroke-width:50;stroke-linecap:round;stroke-miterlimit:4;stroke-dasharray:none;stroke-opacity:0"
       id="rect913"
       width="13.363476"
       height="13.363476"
       x="-75.473694"
       y="-99.079453"
       ry="6.6817379"
       rx="3.2072344"
       inkscape:transform-center-y="23.623518" />
    <rect
       inkscape:transform-center-y="16.704357"
       rx="3.2072344"
       ry="6.6817379"
       y="-30.292702"
       x="-103.9557"
       height="13.363476"
       width="13.363476"
       id="rect915"
       style="opacity:1;fill:#8694b6;fill-opacity:0.99264705;stroke:#e69797;stroke-width:50;stroke-linecap:round;stroke-miterlimit:4;stroke-dasharray:none;stroke-opacity:0"
       transform="rotate(-135)"
       inkscape:transform-center-x="16.704344" />
    <rect
       inkscape:transform-center-x="23.62352"
       transform="rotate(-90)"
       style="opacity:1;fill:#8694b6;fill-opacity:0.99264705;stroke:#e69797;stroke-width:50;stroke-linecap:round;stroke-miterlimit:4;stroke-dasharray:none;stroke-opacity:0"
       id="rect917"
       width="13.363476"
       height="13.363476"
       x="-75.455948"
       y="38.486694"
       ry="6.6817379"
       rx="3.2072344"
       inkscape:transform-center-y="1.2912101e-05" />
    <rect
       inkscape:transform-center-y="-16.704344"
       rx="3.2072344"
       ry="6.6817379"
       y="66.968697"
       x="-6.6691966"
       height="13.363476"
       width="13.363476"
       id="rect919"
       style="opacity:1;fill:#8694b6;fill-opacity:0.99264705;stroke:#e69797;stroke-width:50;stroke-linecap:round;stroke-miterlimit:4;stroke-dasharray:none;stroke-opacity:0"
       transform="rotate(-45)"
       inkscape:transform-center-x="16.704362" />
  </g>
</svg>
