<?xml version="1.0" encoding="UTF-8" standalone="no"?>
<!-- Created with Inkscape (http://www.inkscape.org/) -->

<svg
   xmlns:dc="http://purl.org/dc/elements/1.1/"
   xmlns:cc="http://creativecommons.org/ns#"
   xmlns:rdf="http://www.w3.org/1999/02/22-rdf-syntax-ns#"
   xmlns:svg="http://www.w3.org/2000/svg"
   xmlns="http://www.w3.org/2000/svg"
   xmlns:sodipodi="http://sodipodi.sourceforge.net/DTD/sodipodi-0.dtd"
   xmlns:inkscape="http://www.inkscape.org/namespaces/inkscape"
   width="137.69025mm"
   height="137.69077mm"
   viewBox="0 0 137.69025 137.69077"
   version="1.1"
   id="svg8"
   inkscape:version="0.92.2 2405546, 2018-03-11"
   sodipodi:docname="logout.svg">
  <defs
     id="defs2" />
  <sodipodi:namedview
     id="base"
     pagecolor="#ffffff"
     bordercolor="#666666"
     borderopacity="1.0"
     inkscape:pageopacity="0.0"
     inkscape:pageshadow="2"
     inkscape:zoom="0.49497475"
     inkscape:cx="514.27779"
     inkscape:cy="227.88382"
     inkscape:document-units="mm"
     inkscape:current-layer="layer1"
     showgrid="false"
     inkscape:snap-bbox="true"
     inkscape:snap-bbox-midpoints="true"
     inkscape:snap-nodes="false"
     inkscape:snap-others="true"
     inkscape:bbox-paths="true"
     inkscape:snap-object-midpoints="true"
     inkscape:snap-page="false"
     showguides="true"
     inkscape:guide-bbox="true"
     inkscape:window-width="1360"
     inkscape:window-height="705"
     inkscape:window-x="0"
     inkscape:window-y="34"
     inkscape:window-maximized="1" />
  <metadata
     id="metadata5">
    <rdf:RDF>
      <cc:Work
         rdf:about="">
        <dc:format>image/svg+xml</dc:format>
        <dc:type
           rdf:resource="http://purl.org/dc/dcmitype/StillImage" />
        <dc:title></dc:title>
      </cc:Work>
    </rdf:RDF>
  </metadata>
  <g
     inkscape:label="Capa 1"
     inkscape:groupmode="layer"
     id="layer1"
     transform="translate(0.0532026,0.14311939)">
    <path
       style="opacity:1;fill:#8694b6;fill-opacity:1;stroke:#e69797;stroke-width:188.97637939;stroke-linecap:round;stroke-miterlimit:4;stroke-dasharray:none;stroke-opacity:0"
       d="m 145.91602,94.488281 c -28.49143,0 -51.427739,22.938269 -51.427739,51.429689 v 228.57031 c 0,28.49143 22.936309,51.42969 51.427739,51.42969 h 228.57226 c 28.49141,0 51.42774,-22.93826 51.42774,-51.42969 V 145.91797 c 0,-28.49142 -22.93633,-51.429689 -51.42774,-51.429689 h -53.96289 c 0.0111,0.06268 0.0183,0.126708 0.0293,0.189453 H 199.84766 c 0.011,-0.06274 0.0182,-0.126771 0.0293,-0.189453 z M 163.1543,126.60352 H 357.25 c 20.77521,2.33181 36.82227,19.85713 36.82227,41.27539 v 184.64843 c 0,23.01657 -18.52837,41.54688 -41.54493,41.54688 H 167.87695 c -23.01657,0 -41.54687,-18.53031 -41.54687,-41.54688 V 167.87891 c 0,-21.41826 16.04877,-38.94358 36.82422,-41.27539 z"
       transform="matrix(0.26458333,0,0,0.26458333,-0.0532026,-0.14311939)"
       id="rect815"
       inkscape:connector-curvature="0" />
    <rect
       style="opacity:1;fill:#8694b6;fill-opacity:1;stroke:#e69797;stroke-width:25.76178551;stroke-linecap:round;stroke-miterlimit:4;stroke-dasharray:none;stroke-opacity:0"
       id="rect873"
       width="47.095722"
       height="8.5378218"
       x="-23.484463"
       y="92.954201"
       ry="4.2689109"
       transform="rotate(-45)" />
    <rect
       ry="4.2689109"
       y="-4.3323126"
       x="73.675247"
       height="8.5378218"
       width="47.095722"
       id="rect875"
       style="opacity:1;fill:#8694b6;fill-opacity:1;stroke:#e69797;stroke-width:25.76178551;stroke-linecap:round;stroke-miterlimit:4;stroke-dasharray:none;stroke-opacity:0"
       transform="rotate(45)" />
  </g>
</svg>
