<?xml version="1.0" encoding="UTF-8" standalone="no"?>
<!-- Created with Inkscape (http://www.inkscape.org/) -->

<svg
   xmlns:dc="http://purl.org/dc/elements/1.1/"
   xmlns:cc="http://creativecommons.org/ns#"
   xmlns:rdf="http://www.w3.org/1999/02/22-rdf-syntax-ns#"
   xmlns:svg="http://www.w3.org/2000/svg"
   xmlns="http://www.w3.org/2000/svg"
   xmlns:sodipodi="http://sodipodi.sourceforge.net/DTD/sodipodi-0.dtd"
   xmlns:inkscape="http://www.inkscape.org/namespaces/inkscape"
   width="187.60847mm"
   height="218.82991mm"
   viewBox="0 0 187.60847 218.82991"
   version="1.1"
   id="svg8"
   inkscape:version="0.92.2 2405546, 2018-03-11"
   sodipodi:docname="lupa.svg">
  <defs
     id="defs2" />
  <sodipodi:namedview
     id="base"
     pagecolor="#ffffff"
     bordercolor="#666666"
     borderopacity="1.0"
     inkscape:pageopacity="0.0"
     inkscape:pageshadow="2"
     inkscape:zoom="0.35"
     inkscape:cx="390.36938"
     inkscape:cy="278.75069"
     inkscape:document-units="mm"
     inkscape:current-layer="layer1"
     showgrid="false"
     inkscape:snap-bbox="true"
     inkscape:snap-bbox-midpoints="true"
     inkscape:window-width="1360"
     inkscape:window-height="705"
     inkscape:window-x="0"
     inkscape:window-y="34"
     inkscape:window-maximized="1"
     showguides="false" />
  <metadata
     id="metadata5">
    <rdf:RDF>
      <cc:Work
         rdf:about="">
        <dc:format>image/svg+xml</dc:format>
        <dc:type
           rdf:resource="http://purl.org/dc/dcmitype/StillImage" />
        <dc:title></dc:title>
      </cc:Work>
    </rdf:RDF>
  </metadata>
  <g
     inkscape:label="Capa 1"
     inkscape:groupmode="layer"
     id="layer1"
     transform="translate(0.05349745,-0.61305396)">
    <g
       id="g856"
       transform="translate(13.607143,-1.5119048)">
      <rect
         transform="rotate(-32.822038)"
         y="155.03499"
         x="-3.4233365"
         height="76.485245"
         width="31.88405"
         id="rect834"
         style="opacity:1;fill:#000000;fill-opacity:1;stroke:#e69797;stroke-width:35.50285721;stroke-linecap:round;stroke-miterlimit:4;stroke-dasharray:none;stroke-opacity:0" />
      <path
         transform="scale(0.26458333)"
         inkscape:connector-curvature="0"
         id="path836"
         d="M 250,102.51953 A 207.14285,207.14285 0 0 0 42.857422,309.66211 207.14285,207.14285 0 0 0 250,516.80469 207.14285,207.14285 0 0 0 457.14258,309.66211 207.14285,207.14285 0 0 0 250,102.51953 Z m 0,75.54102 A 131.60117,131.60117 0 0 1 381.60156,309.66211 131.60117,131.60117 0 0 1 250,441.26367 131.60117,131.60117 0 0 1 118.39844,309.66211 131.60117,131.60117 0 0 1 250,178.06055 Z"
         style="opacity:1;fill:#000000;fill-opacity:0.98529412;stroke:#e69797;stroke-width:188.97637939;stroke-linecap:round;stroke-miterlimit:4;stroke-dasharray:none;stroke-opacity:0" />
    </g>
    <g
       transform="translate(13.607143,-1.5119048)"
       id="g881"
       style="fill:#4a587b;fill-opacity:1">
      <rect
         style="opacity:1;fill:#4a587b;fill-opacity:1;stroke:#e69797;stroke-width:35.50285721;stroke-linecap:round;stroke-miterlimit:4;stroke-dasharray:none;stroke-opacity:0"
         id="rect877"
         width="31.88405"
         height="76.485245"
         x="-3.4233365"
         y="155.03499"
         transform="rotate(-32.822038)" />
      <path
         style="opacity:1;fill:#4a587b;fill-opacity:1;stroke:#e69797;stroke-width:188.97637939;stroke-linecap:round;stroke-miterlimit:4;stroke-dasharray:none;stroke-opacity:0"
         d="M 250,102.51953 A 207.14285,207.14285 0 0 0 42.857422,309.66211 207.14285,207.14285 0 0 0 250,516.80469 207.14285,207.14285 0 0 0 457.14258,309.66211 207.14285,207.14285 0 0 0 250,102.51953 Z m 0,75.54102 A 131.60117,131.60117 0 0 1 381.60156,309.66211 131.60117,131.60117 0 0 1 250,441.26367 131.60117,131.60117 0 0 1 118.39844,309.66211 131.60117,131.60117 0 0 1 250,178.06055 Z"
         id="path879"
         inkscape:connector-curvature="0"
         transform="scale(0.26458333)" />
    </g>
  </g>
</svg>
