<?xml version="1.0" encoding="UTF-8" standalone="no"?>
<!-- Created with Inkscape (http://www.inkscape.org/) -->

<svg
   xmlns:dc="http://purl.org/dc/elements/1.1/"
   xmlns:cc="http://creativecommons.org/ns#"
   xmlns:rdf="http://www.w3.org/1999/02/22-rdf-syntax-ns#"
   xmlns:svg="http://www.w3.org/2000/svg"
   xmlns="http://www.w3.org/2000/svg"
   xmlns:sodipodi="http://sodipodi.sourceforge.net/DTD/sodipodi-0.dtd"
   xmlns:inkscape="http://www.inkscape.org/namespaces/inkscape"
   width="232.94022mm"
   height="232.94022mm"
   viewBox="0 0 232.94022 232.94022"
   version="1.1"
   id="svg8"
   inkscape:version="0.92.2 2405546, 2018-03-11"
   sodipodi:docname="placeholderProfile.svg">
  <defs
     id="defs2" />
  <sodipodi:namedview
     id="base"
     pagecolor="#ffffff"
     bordercolor="#666666"
     borderopacity="1.0"
     inkscape:pageopacity="0.0"
     inkscape:pageshadow="2"
     inkscape:zoom="0.35"
     inkscape:cx="576.55118"
     inkscape:cy="400.20197"
     inkscape:document-units="mm"
     inkscape:current-layer="layer1"
     showgrid="false"
     inkscape:snap-object-midpoints="true"
     inkscape:snap-nodes="false"
     inkscape:snap-others="false"
     inkscape:snap-bbox="false"
     inkscape:snap-bbox-midpoints="true"
     inkscape:snap-global="true"
     inkscape:window-width="1360"
     inkscape:window-height="705"
     inkscape:window-x="0"
     inkscape:window-y="34"
     inkscape:window-maximized="1" />
  <metadata
     id="metadata5">
    <rdf:RDF>
      <cc:Work
         rdf:about="">
        <dc:format>image/svg+xml</dc:format>
        <dc:type
           rdf:resource="http://purl.org/dc/dcmitype/StillImage" />
        <dc:title></dc:title>
      </cc:Work>
    </rdf:RDF>
  </metadata>
  <g
     inkscape:label="Capa 1"
     inkscape:groupmode="layer"
     id="layer1"
     transform="translate(10.636888,-21.779886)">
    <path
       style="opacity:1;fill:#6375a1;fill-opacity:1;stroke:#e69797;stroke-width:33.19478989;stroke-linecap:round;stroke-miterlimit:4;stroke-dasharray:none;stroke-opacity:0"
       d="M 105.83348,38.377281 A 99.872838,99.872838 0 0 0 5.9605074,138.24974 99.872838,99.872838 0 0 0 105.83348,238.12271 99.872838,99.872838 0 0 0 205.70594,138.24974 99.872838,99.872838 0 0 0 105.83348,38.377281 Z m 0.75551,23.39237 c 21.60464,0 38.99762,17.392462 38.99762,38.997099 V 124.294 h 12.22096 v 66.24557 H 55.370926 V 124.294 h 12.220443 v -23.52725 c 0,-21.604637 17.392994,-38.997099 38.997621,-38.997099 z m 0.52348,10.220565 c -15.41538,0 -27.82569,12.410829 -27.82569,27.826208 V 124.294 h 55.65138 V 99.816424 c 0,-15.415379 -12.41031,-27.826208 -27.82569,-27.826208 z"
       id="path826"
       inkscape:connector-curvature="0" />
  </g>
</svg>
