<?xml version="1.0" encoding="UTF-8" standalone="no"?>
<!-- Created with Inkscape (http://www.inkscape.org/) -->

<svg
   xmlns:dc="http://purl.org/dc/elements/1.1/"
   xmlns:cc="http://creativecommons.org/ns#"
   xmlns:rdf="http://www.w3.org/1999/02/22-rdf-syntax-ns#"
   xmlns:svg="http://www.w3.org/2000/svg"
   xmlns="http://www.w3.org/2000/svg"
   xmlns:sodipodi="http://sodipodi.sourceforge.net/DTD/sodipodi-0.dtd"
   xmlns:inkscape="http://www.inkscape.org/namespaces/inkscape"
   width="85mm"
   height="86mm"
   viewBox="0 0 85 86"
   version="1.1"
   id="svg8"
   inkscape:version="0.92.1 r"
   sodipodi:docname="sgs-logo.svg">
  <defs
     id="defs2" />
  <sodipodi:namedview
     id="base"
     pagecolor="#ffffff"
     bordercolor="#666666"
     borderopacity="1.0"
     inkscape:pageopacity="0.0"
     inkscape:pageshadow="2"
     inkscape:zoom="1.4"
     inkscape:cx="-20.40399"
     inkscape:cy="165.29952"
     inkscape:document-units="mm"
     inkscape:current-layer="layer1"
     showgrid="false"
     inkscape:window-width="1360"
     inkscape:window-height="713"
     inkscape:window-x="0"
     inkscape:window-y="26"
     inkscape:window-maximized="1"
     showguides="true"
     inkscape:guide-bbox="true">
    <sodipodi:guide
       position="-12.284226,211.28869"
       orientation="0,1"
       id="guide4487"
       inkscape:locked="false" />
  </sodipodi:namedview>
  <metadata
     id="metadata5">
    <rdf:RDF>
      <cc:Work
         rdf:about="">
        <dc:format>image/svg+xml</dc:format>
        <dc:type
           rdf:resource="http://purl.org/dc/dcmitype/StillImage" />
        <dc:title />
      </cc:Work>
    </rdf:RDF>
  </metadata>
  <g
     inkscape:label="Capa 1"
     inkscape:groupmode="layer"
     id="layer1"
     transform="translate(0,-211)">
    <path
       style="fill:#383838;fill-opacity:1;stroke:none;stroke-width:0.26458332px;stroke-linecap:butt;stroke-linejoin:miter;stroke-opacity:1"
       d="m 36.39134,211.54371 c -4.673349,3.00396 -6.378937,7.38658 -7.9375,10.20506 -1.031727,-3.20058 -3.485764,-6.88054 -7.370609,-10.11049 l -12.945463,0.0946 c -5.0425799,4.28871 -6.8251625,7.00959 -7.5597437,10.67738 v 24.47393 l 19.3714247,19.27686 0.165881,15.88482 c -0.449578,1.05693 -0.703004,2.24419 -1.866551,2.82515 l -7.559746,-0.0946 c -0.8553553,-0.5007 -1.3180523,-1.26291 -1.4174833,-2.26756 V 270.50804 L 0.5780243,262.3814 v 24.19026 c 1.2474231,3.80376 3.7021452,8.27335 8.221202,10.39471 H 20.988661 c 5.463683,-3.94506 7.175683,-8.4902 7.559746,-10.6779 2.00723,6.22631 5.527532,9.27667 7.842933,10.6779 h 12.473141 c 3.87985,-2.56577 6.196285,-5.72126 7.559743,-10.30014 1.756352,3.50269 3.1388,7.03964 7.559228,10.30014 h 13.229167 c 3.575772,-3.17517 6.855391,-7.15821 7.181992,-10.58333 v -26.36425 l -19.371428,-19.08772 0.09457,-15.21355 c 0.43443,-0.71684 0.302157,-1.32007 1.889808,-2.26756 l 7.086906,0.18914 c 0.76498,0.72445 1.659287,1.44854 1.701189,2.17299 l -0.09457,12.56771 6.047695,6.14226 2.645833,-0.0946 0.09405,-22.39502 c -2.037089,-5.57707 -4.627645,-8.03158 -7.653796,-10.39419 H 63.794833 c -4.277648,3.55928 -6.354312,6.74058 -7.181471,10.58333 -2.251512,-5.79541 -3.338155,-6.80688 -7.559747,-10.58333 z m -18.237131,12.00082 c 1.186635,0.6719 1.609979,1.53445 1.79524,2.4567 v 12.47314 l 8.693526,8.50439 -0.09457,13.4183 L 9.1769827,241.02563 V 226.0958 c 0.295751,-1.12166 1.0009453,-1.83462 1.7957543,-2.45722 z m 27.592115,0 c 1.247431,0.81895 1.837222,1.63775 2.078942,2.4567 l 0.09457,12.09538 27.969868,28.06444 -0.09405,16.25327 c -0.345151,1.23109 -0.763521,2.31609 -1.606621,2.55127 l -7.086907,-0.0946 c -1.76094,-0.57845 -1.640734,-1.78409 -1.984375,-2.83497 v -11.33933 l -23.8125,-23.71793 0.09457,12.94598 6.614584,6.33088 v 16.06413 c -0.505011,1.82062 -1.231046,2.3151 -1.984375,2.64584 h -6.803721 c -1.452049,-0.94495 -1.771571,-1.89003 -1.984375,-2.83497 l -0.09457,-55.84569 c 0.302572,-0.98057 0.743841,-1.91487 1.79524,-2.64583 z"
       id="path4598"
       inkscape:connector-curvature="0" />
  </g>
</svg>
